<mxfile host="app.diagrams.net" modified="2021-05-24T06:43:45.261Z" agent="5.0 (Windows NT 10.0; Win64; x64) AppleWebKit/537.36 (KHTML, like Gecko) Chrome/90.0.4430.212 Safari/537.36" etag="oVm0_6vcC_0kbEBFbeBs" version="14.6.13" type="github">
  <diagram id="vdraliI-ng76uWGqOFFx" name="Page-1">
    <mxGraphModel dx="2170" dy="1584" grid="1" gridSize="10" guides="1" tooltips="1" connect="1" arrows="1" fold="1" page="1" pageScale="1" pageWidth="850" pageHeight="1100" math="0" shadow="0">
      <root>
        <mxCell id="0" />
        <mxCell id="1" parent="0" />
        <mxCell id="I6dZqv0GFRtwUgszLqLK-1" value="" style="rounded=0;whiteSpace=wrap;html=1;" vertex="1" parent="1">
          <mxGeometry x="140" y="40" width="320" height="140" as="geometry" />
        </mxCell>
        <mxCell id="I6dZqv0GFRtwUgszLqLK-2" value="App.svelte" style="text;html=1;align=center;verticalAlign=middle;resizable=0;points=[];autosize=1;strokeColor=none;" vertex="1" parent="1">
          <mxGeometry x="140" y="20" width="70" height="20" as="geometry" />
        </mxCell>
        <mxCell id="I6dZqv0GFRtwUgszLqLK-8" value="&amp;lt;script&amp;gt;&lt;br&gt;&amp;nbsp; &amp;nbsp; import Layout from &#39;./Layout.svelte&#39;;&lt;br&gt;&amp;nbsp; &amp;nbsp; import ContentBlog from &#39;./content/Blog.svelte&#39;;&lt;br&gt;&amp;lt;/script&amp;gt;&lt;br&gt;&lt;br&gt;&amp;lt;Layout&amp;gt;&lt;br&gt;&amp;nbsp; &amp;nbsp; &amp;lt;ContentBlog/&amp;gt;&lt;br&gt;&amp;lt;/Layout&amp;gt;" style="text;html=1;align=left;verticalAlign=middle;resizable=0;points=[];autosize=1;strokeColor=none;" vertex="1" parent="1">
          <mxGeometry x="150" y="50" width="280" height="120" as="geometry" />
        </mxCell>
        <mxCell id="I6dZqv0GFRtwUgszLqLK-9" value="" style="rounded=0;whiteSpace=wrap;html=1;align=left;" vertex="1" parent="1">
          <mxGeometry x="560" y="-10" width="270" height="170" as="geometry" />
        </mxCell>
        <mxCell id="I6dZqv0GFRtwUgszLqLK-10" value="" style="rounded=0;whiteSpace=wrap;html=1;align=left;" vertex="1" parent="1">
          <mxGeometry x="560" y="240" width="380" height="320" as="geometry" />
        </mxCell>
        <mxCell id="I6dZqv0GFRtwUgszLqLK-11" value="Layout.svelte" style="text;html=1;align=center;verticalAlign=middle;resizable=0;points=[];autosize=1;strokeColor=none;" vertex="1" parent="1">
          <mxGeometry x="560" y="-30" width="90" height="20" as="geometry" />
        </mxCell>
        <mxCell id="I6dZqv0GFRtwUgszLqLK-12" value="content/Blog.svelte" style="text;html=1;align=center;verticalAlign=middle;resizable=0;points=[];autosize=1;strokeColor=none;" vertex="1" parent="1">
          <mxGeometry x="560" y="220" width="120" height="20" as="geometry" />
        </mxCell>
        <mxCell id="I6dZqv0GFRtwUgszLqLK-13" value="Folder &#39;content&#39; for easy organize many content type" style="shape=callout;whiteSpace=wrap;html=1;perimeter=calloutPerimeter;align=left;size=10;position=0.58;spacingLeft=10;fillColor=#fff2cc;strokeColor=#d6b656;" vertex="1" parent="1">
          <mxGeometry x="500" y="170" width="170" height="50" as="geometry" />
        </mxCell>
        <mxCell id="I6dZqv0GFRtwUgszLqLK-14" value="&lt;div style=&quot;text-align: left&quot;&gt;&lt;span&gt;&amp;lt;script&amp;gt;&lt;/span&gt;&lt;/div&gt;&lt;div style=&quot;text-align: left&quot;&gt;&amp;nbsp; &amp;nbsp; import { onMount } from &#39;svelte&#39;;&lt;/div&gt;&lt;div style=&quot;text-align: left&quot;&gt;&amp;nbsp; &amp;nbsp; import { displayDateFormat } from &#39;./misc/Utility.svelte&#39;;&lt;/div&gt;&lt;div style=&quot;text-align: left&quot;&gt;&lt;br&gt;&lt;/div&gt;&lt;div style=&quot;text-align: left&quot;&gt;&amp;nbsp; &amp;nbsp; let listPost = [];&lt;/div&gt;&lt;div style=&quot;text-align: left&quot;&gt;&lt;br&gt;&lt;/div&gt;&lt;div style=&quot;text-align: left&quot;&gt;&amp;nbsp; &amp;nbsp; onMount(async ()=&amp;gt; {&lt;/div&gt;&lt;div style=&quot;text-align: left&quot;&gt;&amp;nbsp; &amp;nbsp; &amp;nbsp; &amp;nbsp; //Fetch data to listPost&lt;/div&gt;&lt;div style=&quot;text-align: left&quot;&gt;&amp;nbsp; &amp;nbsp; });&lt;/div&gt;&lt;div style=&quot;text-align: left&quot;&gt;&lt;br&gt;&lt;/div&gt;&lt;div style=&quot;text-align: left&quot;&gt;&lt;span&gt;&amp;lt;/script&amp;gt;&lt;/span&gt;&lt;/div&gt;&lt;div style=&quot;text-align: left&quot;&gt;&lt;span&gt;&lt;br&gt;&lt;/span&gt;&lt;/div&gt;&lt;div style=&quot;text-align: left&quot;&gt;&lt;span&gt;{#each listPost as post}&lt;/span&gt;&lt;/div&gt;&lt;div style=&quot;text-align: left&quot;&gt;&lt;span&gt;&amp;nbsp; &amp;nbsp; &amp;lt;div class=&quot;post&quot;&amp;gt;&lt;/span&gt;&lt;/div&gt;&lt;div style=&quot;text-align: left&quot;&gt;&lt;span&gt;&amp;nbsp; &amp;nbsp; &amp;nbsp; &amp;nbsp; &amp;lt;h1&amp;gt;{post.topic}&amp;lt;/h1&amp;gt;&lt;/span&gt;&lt;/div&gt;&lt;div style=&quot;text-align: left&quot;&gt;&lt;span&gt;&amp;nbsp; &amp;nbsp; &amp;nbsp; &amp;nbsp; &amp;lt;div&amp;gt;{post.shortDesc}&amp;lt;/div&amp;gt;&lt;/span&gt;&lt;/div&gt;&lt;div style=&quot;text-align: left&quot;&gt;&amp;nbsp; &amp;nbsp; &amp;nbsp; &amp;nbsp; &amp;lt;div&amp;gt;{ &lt;b&gt;displayDateFormat&lt;/b&gt;(post.createDate) }&amp;lt;/div&amp;gt;&lt;/div&gt;&lt;div style=&quot;text-align: left&quot;&gt;&lt;span&gt;&amp;nbsp; &amp;nbsp; &amp;nbsp; &amp;nbsp; &amp;lt;div&amp;gt;{post.numberViews} / {post.numberComments}&amp;lt;/div&amp;gt;&lt;/span&gt;&lt;/div&gt;&lt;div style=&quot;text-align: left&quot;&gt;&lt;span&gt;&amp;nbsp; &amp;nbsp; &amp;lt;/div&amp;gt;&lt;/span&gt;&lt;/div&gt;&lt;div style=&quot;text-align: left&quot;&gt;&lt;span&gt;{/each}&lt;/span&gt;&lt;/div&gt;" style="text;html=1;align=center;verticalAlign=middle;resizable=0;points=[];autosize=1;strokeColor=none;" vertex="1" parent="1">
          <mxGeometry x="570" y="255" width="350" height="290" as="geometry" />
        </mxCell>
        <mxCell id="I6dZqv0GFRtwUgszLqLK-16" value="import" style="shape=flexArrow;endArrow=classic;html=1;" edge="1" parent="1">
          <mxGeometry width="50" height="50" relative="1" as="geometry">
            <mxPoint x="480" y="99.5" as="sourcePoint" />
            <mxPoint x="550" y="99.5" as="targetPoint" />
          </mxGeometry>
        </mxCell>
        <mxCell id="I6dZqv0GFRtwUgszLqLK-17" value="import" style="shape=flexArrow;endArrow=classic;html=1;" edge="1" parent="1">
          <mxGeometry width="50" height="50" relative="1" as="geometry">
            <mxPoint x="390" y="200" as="sourcePoint" />
            <mxPoint x="550" y="320" as="targetPoint" />
            <Array as="points">
              <mxPoint x="470" y="260" />
            </Array>
          </mxGeometry>
        </mxCell>
        <mxCell id="I6dZqv0GFRtwUgszLqLK-18" value="&amp;lt;slot&amp;gt;Content&amp;lt;/slot&amp;gt;" style="rounded=0;whiteSpace=wrap;html=1;align=center;" vertex="1" parent="1">
          <mxGeometry x="880" y="20" width="240" height="120" as="geometry" />
        </mxCell>
        <mxCell id="I6dZqv0GFRtwUgszLqLK-19" value="Top Menu" style="rounded=0;whiteSpace=wrap;html=1;align=center;" vertex="1" parent="1">
          <mxGeometry x="880" y="-10" width="240" height="30" as="geometry" />
        </mxCell>
        <mxCell id="I6dZqv0GFRtwUgszLqLK-20" value="Footer" style="rounded=0;whiteSpace=wrap;html=1;align=center;" vertex="1" parent="1">
          <mxGeometry x="880" y="140" width="240" height="30" as="geometry" />
        </mxCell>
        <mxCell id="I6dZqv0GFRtwUgszLqLK-21" value="=" style="text;html=1;align=center;verticalAlign=middle;resizable=0;points=[];autosize=1;strokeColor=none;" vertex="1" parent="1">
          <mxGeometry x="850" y="50" width="20" height="20" as="geometry" />
        </mxCell>
        <mxCell id="I6dZqv0GFRtwUgszLqLK-22" value="When Layout.svelte rendered will display like this" style="shape=callout;whiteSpace=wrap;html=1;perimeter=calloutPerimeter;align=left;size=10;position=0.58;spacingLeft=10;spacingRight=10;fillColor=#fff2cc;strokeColor=#d6b656;" vertex="1" parent="1">
          <mxGeometry x="980" y="-70" width="180" height="50" as="geometry" />
        </mxCell>
        <mxCell id="I6dZqv0GFRtwUgszLqLK-24" value="Svelte component support injection of sub component&lt;br&gt;by using &amp;lt;slot&amp;gt;&amp;nbsp;" style="shape=callout;whiteSpace=wrap;html=1;perimeter=calloutPerimeter;align=left;size=10;position=0.76;spacingLeft=10;position2=1;fillColor=#fff2cc;strokeColor=#d6b656;" vertex="1" parent="1">
          <mxGeometry x="-40" y="85" width="170" height="55" as="geometry" />
        </mxCell>
        <mxCell id="I6dZqv0GFRtwUgszLqLK-25" value="&lt;div style=&quot;text-align: left&quot;&gt;&amp;lt;script&amp;gt;&lt;/div&gt;&lt;div style=&quot;text-align: left&quot;&gt;&amp;nbsp; &amp;nbsp; import Footer from &#39;./comp/Footer.svelte&#39;;&lt;/div&gt;&lt;div style=&quot;text-align: left&quot;&gt;&amp;lt;/script&amp;gt;&lt;/div&gt;&lt;div style=&quot;text-align: left&quot;&gt;&lt;br&gt;&lt;/div&gt;&lt;div style=&quot;text-align: left&quot;&gt;&amp;lt;div class=&quot;header&quot;&amp;gt;MY SITE&amp;lt;/div&amp;gt;&lt;/div&gt;&lt;div style=&quot;text-align: left&quot;&gt;&amp;lt;div class=&quot;content&quot;&amp;gt;&lt;/div&gt;&lt;div style=&quot;text-align: left&quot;&gt;&lt;span&gt;&amp;nbsp; &amp;nbsp; &amp;lt;slot&amp;gt;&lt;/span&gt;&lt;/div&gt;&lt;div style=&quot;text-align: left&quot;&gt;&lt;span&gt;&amp;nbsp; &amp;nbsp; &amp;lt;/slot&amp;gt;&lt;/span&gt;&lt;/div&gt;&lt;div style=&quot;text-align: left&quot;&gt;&lt;span&gt;&amp;lt;/div&amp;gt;&lt;/span&gt;&lt;/div&gt;&lt;div style=&quot;text-align: left&quot;&gt;&lt;span&gt;&amp;lt;Footer/&amp;gt;&lt;/span&gt;&lt;/div&gt;" style="text;html=1;align=center;verticalAlign=middle;resizable=0;points=[];autosize=1;strokeColor=none;" vertex="1" parent="1">
          <mxGeometry x="570" width="250" height="150" as="geometry" />
        </mxCell>
        <mxCell id="I6dZqv0GFRtwUgszLqLK-26" value="Post will be rendered when data assigned" style="shape=callout;whiteSpace=wrap;html=1;perimeter=calloutPerimeter;align=left;size=10;position=0.58;spacingLeft=10;fillColor=#fff2cc;strokeColor=#d6b656;" vertex="1" parent="1">
          <mxGeometry x="790" y="400" width="170" height="50" as="geometry" />
        </mxCell>
        <mxCell id="I6dZqv0GFRtwUgszLqLK-27" value="Footer can prepared as component. So we can shorten code of Layout by just calls it&lt;br&gt;&lt;br&gt;But remember that component is designed to be called more than 1 time. This is just for example" style="shape=callout;whiteSpace=wrap;html=1;perimeter=calloutPerimeter;align=left;size=10;position=0.58;spacingLeft=10;fillColor=#fff2cc;strokeColor=#d6b656;" vertex="1" parent="1">
          <mxGeometry x="691" y="-120" width="219" height="125" as="geometry" />
        </mxCell>
        <mxCell id="I6dZqv0GFRtwUgszLqLK-28" value="import" style="shape=flexArrow;endArrow=classic;html=1;" edge="1" parent="1">
          <mxGeometry width="50" height="50" relative="1" as="geometry">
            <mxPoint x="960" y="280" as="sourcePoint" />
            <mxPoint x="1060" y="280" as="targetPoint" />
          </mxGeometry>
        </mxCell>
        <mxCell id="I6dZqv0GFRtwUgszLqLK-29" value="" style="rounded=0;whiteSpace=wrap;html=1;align=left;" vertex="1" parent="1">
          <mxGeometry x="1070" y="240" width="570" height="550" as="geometry" />
        </mxCell>
        <mxCell id="I6dZqv0GFRtwUgszLqLK-30" value="./misc/Utility.svelte" style="text;html=1;align=center;verticalAlign=middle;resizable=0;points=[];autosize=1;strokeColor=none;" vertex="1" parent="1">
          <mxGeometry x="1070" y="220" width="110" height="20" as="geometry" />
        </mxCell>
        <mxCell id="I6dZqv0GFRtwUgszLqLK-31" value="&amp;lt;script context=&quot;module&quot;&amp;gt;&lt;br&gt;&lt;br&gt;&amp;nbsp; &amp;nbsp; export function displayDateForma(inputDate) {&lt;br&gt;&amp;nbsp; &amp;nbsp; &amp;nbsp; &amp;nbsp;&lt;span&gt;// let tmpDate = new Date(inputDate);&lt;/span&gt;&lt;div&gt;&amp;nbsp; &amp;nbsp; &amp;nbsp; &amp;nbsp; inputDate = inputDate.replace(&quot; &quot;, &quot;T&quot;) + &quot;+0700&quot;;&lt;/div&gt;&lt;div&gt;&amp;nbsp; &amp;nbsp; &amp;nbsp; &amp;nbsp; let tmpDate = new Date(Date.fromISO(inputDate));&lt;/div&gt;&lt;div&gt;&amp;nbsp; &amp;nbsp; &amp;nbsp; &amp;nbsp; tmpDate.addHours(-7);&lt;/div&gt;&lt;div&gt;&amp;nbsp; &amp;nbsp; &amp;nbsp; &amp;nbsp; const todayCheck = new Date();&lt;/div&gt;&lt;div&gt;&lt;br&gt;&lt;/div&gt;&lt;div&gt;&amp;nbsp; &amp;nbsp; &amp;nbsp; &amp;nbsp; if(todayCheck.getDate() == tmpDate.getDate()&lt;/div&gt;&lt;div&gt;&amp;nbsp; &amp;nbsp; &amp;nbsp; &amp;nbsp; &amp;nbsp; &amp;nbsp; &amp;amp;&amp;amp; todayCheck.getMonth() == tmpDate.getMonth()&lt;/div&gt;&lt;div&gt;&amp;nbsp; &amp;nbsp; &amp;nbsp; &amp;nbsp; &amp;nbsp; &amp;nbsp; &amp;amp;&amp;amp; todayCheck.getFullYear() == tmpDate.getFullYear()) {&lt;/div&gt;&lt;div&gt;&amp;nbsp; &amp;nbsp; &amp;nbsp; &amp;nbsp; &amp;nbsp; &amp;nbsp; &amp;nbsp; &amp;nbsp; return &quot;Today&quot;;&lt;/div&gt;&lt;div&gt;&amp;nbsp; &amp;nbsp; &amp;nbsp; &amp;nbsp; } else {&lt;/div&gt;&lt;div&gt;&amp;nbsp; &amp;nbsp; &amp;nbsp; &amp;nbsp; &amp;nbsp; &amp;nbsp; let result = Math.floor((todayCheck.getTime() - tmpDate.getTime())/(1000*60*60*24));&lt;/div&gt;&lt;div&gt;&amp;nbsp; &amp;nbsp; &amp;nbsp; &amp;nbsp; &amp;nbsp; &amp;nbsp; if(result === 1) {&lt;/div&gt;&lt;div&gt;&amp;nbsp; &amp;nbsp; &amp;nbsp; &amp;nbsp; &amp;nbsp; &amp;nbsp; &amp;nbsp; &amp;nbsp; result = &quot;1 day ago&quot;;&lt;/div&gt;&lt;div&gt;&amp;nbsp; &amp;nbsp; &amp;nbsp; &amp;nbsp; &amp;nbsp; &amp;nbsp; } else if(result === 0) {&lt;/div&gt;&lt;div&gt;&amp;nbsp; &amp;nbsp; &amp;nbsp; &amp;nbsp; &amp;nbsp; &amp;nbsp; &amp;nbsp; &amp;nbsp; result = Math.floor((todayCheck.getTime() - tmpDate.getTime())/(1000*60*60)) + &quot; hours ago&quot;;&lt;/div&gt;&lt;div&gt;&amp;nbsp; &amp;nbsp; &amp;nbsp; &amp;nbsp; &amp;nbsp; &amp;nbsp; } else {&lt;/div&gt;&lt;div&gt;&lt;br&gt;&lt;/div&gt;&lt;div&gt;&amp;nbsp; &amp;nbsp; &amp;nbsp; &amp;nbsp; &amp;nbsp; &amp;nbsp; &amp;nbsp; &amp;nbsp; if(result &amp;gt; 365) {&lt;/div&gt;&lt;div&gt;&amp;nbsp; &amp;nbsp; &amp;nbsp; &amp;nbsp; &amp;nbsp; &amp;nbsp; &amp;nbsp; &amp;nbsp; &amp;nbsp; &amp;nbsp; result = Math.floor(result/365);&lt;/div&gt;&lt;div&gt;&amp;nbsp; &amp;nbsp; &amp;nbsp; &amp;nbsp; &amp;nbsp; &amp;nbsp; &amp;nbsp; &amp;nbsp; &amp;nbsp; &amp;nbsp; if(result &amp;gt; 2) {&lt;/div&gt;&lt;div&gt;&amp;nbsp; &amp;nbsp; &amp;nbsp; &amp;nbsp; &amp;nbsp; &amp;nbsp; &amp;nbsp; &amp;nbsp; &amp;nbsp; &amp;nbsp; &amp;nbsp; &amp;nbsp; result = result + &quot; years ago&quot;;&lt;/div&gt;&lt;div&gt;&amp;nbsp; &amp;nbsp; &amp;nbsp; &amp;nbsp; &amp;nbsp; &amp;nbsp; &amp;nbsp; &amp;nbsp; &amp;nbsp; &amp;nbsp; } else {&lt;/div&gt;&lt;div&gt;&amp;nbsp; &amp;nbsp; &amp;nbsp; &amp;nbsp; &amp;nbsp; &amp;nbsp; &amp;nbsp; &amp;nbsp; &amp;nbsp; &amp;nbsp; &amp;nbsp; &amp;nbsp; result = result + &quot; year ago&quot;;&lt;/div&gt;&lt;div&gt;&amp;nbsp; &amp;nbsp; &amp;nbsp; &amp;nbsp; &amp;nbsp; &amp;nbsp; &amp;nbsp; &amp;nbsp; &amp;nbsp; &amp;nbsp; }&lt;/div&gt;&lt;div&gt;&amp;nbsp; &amp;nbsp; &amp;nbsp; &amp;nbsp; &amp;nbsp; &amp;nbsp; &amp;nbsp; &amp;nbsp; } else {&lt;/div&gt;&lt;div&gt;&amp;nbsp; &amp;nbsp; &amp;nbsp; &amp;nbsp; &amp;nbsp; &amp;nbsp; &amp;nbsp; &amp;nbsp; &amp;nbsp; &amp;nbsp; result = numberWithCommas(result) + &quot; days ago&quot;;&lt;/div&gt;&lt;div&gt;&amp;nbsp; &amp;nbsp; &amp;nbsp; &amp;nbsp; &amp;nbsp; &amp;nbsp; &amp;nbsp; &amp;nbsp; }&lt;/div&gt;&lt;div&gt;&amp;nbsp; &amp;nbsp; &amp;nbsp; &amp;nbsp; &amp;nbsp; &amp;nbsp; &amp;nbsp; &amp;nbsp;&amp;nbsp;&lt;/div&gt;&lt;div&gt;&amp;nbsp; &amp;nbsp; &amp;nbsp; &amp;nbsp; &amp;nbsp; &amp;nbsp; }&lt;/div&gt;&lt;div&gt;&lt;br&gt;&lt;/div&gt;&lt;div&gt;&amp;nbsp; &amp;nbsp; &amp;nbsp; &amp;nbsp; &amp;nbsp; &amp;nbsp; return result;&lt;/div&gt;&lt;div&gt;&amp;nbsp; &amp;nbsp; &amp;nbsp; &amp;nbsp; }&lt;/div&gt;&amp;nbsp; &amp;nbsp; }&lt;br&gt;&amp;lt;/script&amp;gt;" style="text;html=1;align=left;verticalAlign=middle;resizable=0;points=[];autosize=1;strokeColor=none;" vertex="1" parent="1">
          <mxGeometry x="1080" y="240" width="570" height="540" as="geometry" />
        </mxCell>
        <mxCell id="I6dZqv0GFRtwUgszLqLK-32" value="Create utility.svelte for common function&lt;br&gt;which usually be called from any svelte file." style="shape=callout;whiteSpace=wrap;html=1;perimeter=calloutPerimeter;align=left;size=10;position=0.58;spacingLeft=10;fillColor=#fff2cc;strokeColor=#d6b656;" vertex="1" parent="1">
          <mxGeometry x="1130" y="170" width="320" height="50" as="geometry" />
        </mxCell>
      </root>
    </mxGraphModel>
  </diagram>
</mxfile>
